<?xml version="1.0" standalone="no"?>
<!DOCTYPE svg PUBLIC "-//W3C//DTD SVG 20010904//EN"
 "http://www.w3.org/TR/2001/REC-SVG-20010904/DTD/svg10.dtd">
<svg version="1.0" xmlns="http://www.w3.org/2000/svg"
 width="96.000000pt" height="96.000000pt" viewBox="0 0 96.000000 96.000000"
 preserveAspectRatio="xMidYMid meet">

<g transform="translate(0.000000,96.000000) scale(0.100000,-0.100000)"
fill="#000000" stroke="none">
<path d="M507 871 c-40 -45 -62 -108 -53 -156 5 -27 3 -33 -19 -43 -19 -9 -32
-9 -46 -1 -11 6 -39 9 -62 7 -39 -3 -43 0 -56 29 -13 28 -19 32 -65 35 -28 2
-53 3 -55 2 -2 -2 6 -19 18 -38 l22 -34 -21 -7 c-23 -7 -50 -54 -50 -87 0 -13
9 -37 19 -54 12 -20 16 -36 10 -45 -22 -34 4 -112 40 -124 16 -5 19 -12 14
-39 -6 -40 18 -92 47 -101 12 -4 28 -24 37 -46 14 -37 54 -69 84 -69 6 0 22
-11 35 -25 42 -45 106 -45 148 0 13 14 29 25 35 25 30 0 70 32 84 69 9 22 25
42 37 46 29 9 53 61 47 101 -5 27 -2 34 14 39 36 12 62 90 40 124 -6 9 -2 25
10 45 10 17 19 41 19 54 0 33 -26 80 -49 87 -17 5 -18 10 -9 36 6 16 9 31 7
33 -2 1 -28 0 -57 -2 -45 -3 -55 -8 -62 -28 -8 -19 -17 -24 -45 -24 -20 0 -45
-4 -55 -10 -13 -7 -29 -5 -54 5 -29 12 -36 21 -36 43 0 48 20 102 52 138 21
23 28 38 21 45 -7 7 -22 -4 -46 -30z"/>
</g>
</svg>
